<svg width="214" height="195" viewBox="0 0 214 195" fill="none" xmlns="http://www.w3.org/2000/svg">
<g filter="url(#filter0_d_106_389)">
<path d="M54.7119 141.293C61.7851 146.168 82.412 149.704 106.757 149.704C130.365 149.704 150.477 146.379 158.123 141.732C160.253 144.097 161.416 147.53 161.416 152.441C161.415 156.798 136.943 167.294 106.756 167.294C76.5691 167.294 52.0983 157.076 52.0967 152.441C52.0967 147.426 53.0143 143.831 54.7119 141.293ZM106.753 61.0165C108.189 61.0165 109.597 61.0333 110.977 61.0663L109.996 69.3271C108.204 84.4201 118.986 98.1088 134.079 99.9013C147.2 101.459 159.257 93.5132 163.362 81.4941C165.853 83.34 168.903 84.4723 172.212 84.5927L160.956 130.291C160.181 133.437 158.273 136.181 155.285 137.435C148.597 140.239 133.782 144.649 106.754 144.649C75.1863 144.649 61.712 139.853 56.5625 137.084C54.5869 136.021 53.4722 134.029 52.9355 131.851L41.2939 84.5927C44.603 84.4721 47.653 83.3386 50.1436 81.4921C54.2478 93.5125 66.3067 101.46 79.4287 99.9013C94.5217 98.1088 105.304 84.4201 103.512 69.3271L102.53 61.0663C103.91 61.0334 105.317 61.0165 106.753 61.0165ZM106.755 103.857C101.8 103.857 97.7823 109.764 97.7822 117.052C97.7823 124.339 101.8 130.247 106.755 130.247C111.71 130.247 115.726 124.339 115.727 117.052C115.727 109.765 111.71 103.858 106.755 103.857ZM39.8711 54.1396C46.983 54.1398 52.748 59.9056 52.748 67.0175C52.748 74.1295 46.983 79.8953 39.8711 79.8954C32.759 79.8954 26.9932 74.1296 26.9932 67.0175C26.9932 59.9055 32.759 54.1396 39.8711 54.1396ZM173.442 54.0351C180.554 54.0353 186.319 59.8003 186.319 66.912C186.319 74.024 180.554 79.7897 173.442 79.79C166.33 79.79 160.564 74.0241 160.564 66.912C160.565 59.8001 166.33 54.0351 173.442 54.0351ZM106.759 26.9931C114.866 26.9933 121.438 33.5655 121.438 41.6728C121.438 49.7801 114.866 56.3523 106.759 56.3525C98.6514 56.3525 92.0791 49.7802 92.0791 41.6728C92.0791 33.5654 98.6514 26.9931 106.759 26.9931Z" fill="url(#paint0_linear_106_389)" shape-rendering="crispEdges"/>
</g>
<defs>
<filter id="filter0_d_106_389" x="7.43866e-05" y="1.33514e-05" width="213.312" height="194.287" filterUnits="userSpaceOnUse" color-interpolation-filters="sRGB">
<feFlood flood-opacity="0" result="BackgroundImageFix"/>
<feColorMatrix in="SourceAlpha" type="matrix" values="0 0 0 0 0 0 0 0 0 0 0 0 0 0 0 0 0 0 127 0" result="hardAlpha"/>
<feOffset/>
<feGaussianBlur stdDeviation="13.4965"/>
<feComposite in2="hardAlpha" operator="out"/>
<feColorMatrix type="matrix" values="0 0 0 0 0.486275 0 0 0 0 0.227451 0 0 0 0 0.929412 0 0 0 0.7 0"/>
<feBlend mode="normal" in2="BackgroundImageFix" result="effect1_dropShadow_106_389"/>
<feBlend mode="normal" in="SourceGraphic" in2="effect1_dropShadow_106_389" result="shape"/>
</filter>
<linearGradient id="paint0_linear_106_389" x1="106.656" y1="97.1435" x2="106.656" y2="275.107" gradientUnits="userSpaceOnUse">
<stop stop-color="white"/>
<stop offset="1" stop-color="white" stop-opacity="0"/>
</linearGradient>
</defs>
</svg>
