<svg width="200" height="200" viewBox="0 0 200 200" fill="none" xmlns="http://www.w3.org/2000/svg">
<g filter="url(#filter0_d_pi13)">
<path fill-rule="evenodd" clip-rule="evenodd"
  d="M100 32 C65 32 37 60 37 95 L37 158 Q50 143 63 158 Q76 173 89 158 Q97 148 100 152 Q103 148 111 158 Q124 173 137 158 Q150 143 163 158 L163 95 C163 60 135 32 100 32 Z
     M68 92 L82 78 L96 92 L82 106 Z
     M104 92 L118 78 L132 92 L118 106 Z
     M93 120 L100 112 L107 120 Z"
  fill="url(#paint0_linear_pi13)" shape-rendering="crispEdges"/>
</g>
<defs>
<filter id="filter0_d_pi13" x="0" y="0" width="200" height="200" filterUnits="userSpaceOnUse" color-interpolation-filters="sRGB">
<feFlood flood-opacity="0" result="BackgroundImageFix"/>
<feColorMatrix in="SourceAlpha" type="matrix" values="0 0 0 0 0 0 0 0 0 0 0 0 0 0 0 0 0 0 127 0" result="hardAlpha"/>
<feOffset/>
<feGaussianBlur stdDeviation="13.4965"/>
<feComposite in2="hardAlpha" operator="out"/>
<feColorMatrix type="matrix" values="0 0 0 0 0.486275 0 0 0 0 0.227451 0 0 0 0 0.929412 0 0 0 0.7 0"/>
<feBlend mode="normal" in2="BackgroundImageFix" result="effect1_dropShadow_pi13"/>
<feBlend mode="normal" in="SourceGraphic" in2="effect1_dropShadow_pi13" result="shape"/>
</filter>
<linearGradient id="paint0_linear_pi13" x1="100" y1="32" x2="100" y2="220" gradientUnits="userSpaceOnUse">
<stop stop-color="white"/>
<stop offset="1" stop-color="white" stop-opacity="0"/>
</linearGradient>
</defs>
</svg>
