<svg width="205" height="180" viewBox="0 0 205 180" fill="none" xmlns="http://www.w3.org/2000/svg">
<g filter="url(#filter0_d_106_438)">
<path d="M111.12 146.06C108.324 146.348 105.424 146.501 102.418 146.501C99.432 146.501 96.5511 146.35 93.7725 146.066L102.447 107.314L111.12 146.06ZM78.6045 95.3319C85.4111 96.157 92.456 96.6353 99.6738 96.7323L88.7803 145.398C86.3065 144.984 83.9197 144.46 81.6182 143.835L78.6045 95.3319ZM123.277 143.818C120.975 144.445 118.587 144.973 116.112 145.39L105.221 96.7304C112.686 96.6272 119.729 96.1176 126.29 95.3241L123.277 143.818ZM76.5078 142.238C71.3662 140.413 66.6904 138.071 62.4492 135.351C62.4795 135.266 62.5097 135.18 62.54 135.095C66.1155 125.012 70.2877 114.219 74.2021 105.101L76.5078 142.238ZM130.693 105.101C134.608 114.219 138.78 125.012 142.355 135.095C142.382 135.17 142.408 135.245 142.435 135.32C138.197 138.043 133.525 140.387 128.387 142.216L130.693 105.101ZM48.2939 88.9413C56.1169 91.3767 64.5418 93.301 73.416 94.6298C68.5906 104.879 62.9019 119.205 58.1943 132.394C54.9821 129.979 52.0518 127.343 49.3857 124.563C47.9108 105.919 47.8191 94.7836 48.2939 88.9413ZM156.599 88.9218C157.075 94.7515 156.986 105.87 155.515 124.494C152.844 127.286 149.908 129.933 146.688 132.358C141.981 119.174 136.296 104.859 131.474 94.619C140.35 93.2873 148.775 91.3607 156.599 88.9218ZM43.041 97.0849C43.0508 102.393 43.3038 109.331 43.9043 118.197C41.5306 115.128 39.4319 111.96 37.585 108.781C39.2822 104.588 41.1328 100.659 43.041 97.0849ZM161.854 97.0849C163.753 100.641 165.595 104.55 167.285 108.72C165.447 111.89 163.358 115.048 160.996 118.11C161.592 109.285 161.845 102.376 161.854 97.0849ZM26.9932 80.2939C31.9272 82.8556 37.2978 85.1675 43.0361 87.1952C40.1357 91.7035 37.2114 97.0987 34.5547 103.111C30.4485 94.7322 28.0418 86.6098 26.9932 80.2939ZM177.842 80.2939C176.796 86.5936 174.398 94.6904 170.312 103.047C167.659 97.0524 164.741 91.6733 161.848 87.1776C167.568 85.154 172.922 82.8483 177.842 80.2939ZM31.0166 34.3212C38.3945 32.4014 50.5439 33.6557 61.6914 40.0917C72.8391 46.5278 80.0011 56.423 82.0273 63.7724C74.6494 65.6923 57.1936 64.7691 46.0459 58.3329C34.8985 51.8969 33.0428 41.6705 31.0166 34.3212ZM141.491 40.0917C152.639 33.6557 164.788 32.4014 172.166 34.3212C170.14 41.6705 168.284 51.8969 157.137 58.3329C145.989 64.7691 128.533 65.6923 121.155 63.7724C123.182 56.423 130.343 46.5278 141.491 40.0917Z" fill="url(#paint0_linear_106_438)"/>
</g>
<defs>
<filter id="filter0_d_106_438" x="7.43866e-05" y="6.50606" width="204.835" height="166.988" filterUnits="userSpaceOnUse" color-interpolation-filters="sRGB">
<feFlood flood-opacity="0" result="BackgroundImageFix"/>
<feColorMatrix in="SourceAlpha" type="matrix" values="0 0 0 0 0 0 0 0 0 0 0 0 0 0 0 0 0 0 127 0" result="hardAlpha"/>
<feOffset/>
<feGaussianBlur stdDeviation="13.4965"/>
<feComposite in2="hardAlpha" operator="out"/>
<feColorMatrix type="matrix" values="0 0 0 0 0.486275 0 0 0 0 0.227451 0 0 0 0 0.929412 0 0 0 0.7 0"/>
<feBlend mode="normal" in2="BackgroundImageFix" result="effect1_dropShadow_106_438"/>
<feBlend mode="normal" in="SourceGraphic" in2="effect1_dropShadow_106_438" result="shape"/>
</filter>
<linearGradient id="paint0_linear_106_438" x1="102.418" y1="90" x2="102.418" y2="233.337" gradientUnits="userSpaceOnUse">
<stop stop-color="white"/>
<stop offset="1" stop-color="white" stop-opacity="0"/>
</linearGradient>
</defs>
</svg>
