<svg width="201" height="225" viewBox="0 0 201 225" fill="none" xmlns="http://www.w3.org/2000/svg">
<g filter="url(#filter0_d_106_390)">
<path d="M106.084 49.6688C143.604 53.3486 173.096 91.0059 173.096 136.919C173.096 138.607 173.057 140.285 172.978 141.95C149.16 152.962 133.588 166.098 136.434 173.901C136.622 174.417 136.885 174.899 137.223 175.347C140.374 179.53 143.161 186.121 138.44 188.391C126.572 194.095 113.614 197.234 100.045 197.234C86.4745 197.234 73.5148 194.095 61.6455 188.39C56.9253 186.12 59.713 179.53 62.8633 175.346C63.2002 174.898 63.4645 174.416 63.6523 173.901C66.4973 166.099 50.9277 152.963 27.1123 141.952C27.0692 141.038 27.0368 140.12 27.0166 139.198C27.0008 138.441 26.9932 137.681 26.9932 136.919C26.9932 111.17 36.2702 88.0169 51.0361 71.9979L107.413 99.8124L88.8604 70.244L114.95 73.2753L106.084 49.6688ZM100.901 151.148C100.635 150.312 99.4529 150.312 99.1865 151.148L88.4961 184.687C88.5533 184.702 95.5532 186.487 100.044 186.487C104.545 186.487 111.566 184.694 111.593 184.687L100.901 151.148ZM69.2246 109.834C57.5548 109.834 48.095 119.293 48.0947 130.963C48.0949 142.632 57.5547 152.093 69.2246 152.093C80.8945 152.093 90.3543 142.632 90.3545 130.963C90.3543 119.293 80.8945 109.834 69.2246 109.834ZM130.863 109.834C119.194 109.834 109.734 119.294 109.733 130.963C109.734 142.632 119.194 152.092 130.863 152.093C142.533 152.093 151.993 142.632 151.993 130.963C151.993 119.293 142.533 109.834 130.863 109.834ZM72.5879 66.078L43.3096 46.5155C43.3173 46.5088 46.4297 43.8006 51.3965 41.5575C56.3694 39.3117 61.2832 38.3993 61.2832 38.3993L72.5879 66.078ZM77.1191 27.122C82.1462 26.7676 87.9569 27.2004 90.7285 27.7372L86.2773 41.7186L76.7256 35.8319L77.1191 27.122Z" fill="url(#paint0_linear_106_390)" shape-rendering="crispEdges"/>
</g>
<defs>
<filter id="filter0_d_106_390" x="7.43866e-05" y="1.33514e-05" width="200.089" height="224.227" filterUnits="userSpaceOnUse" color-interpolation-filters="sRGB">
<feFlood flood-opacity="0" result="BackgroundImageFix"/>
<feColorMatrix in="SourceAlpha" type="matrix" values="0 0 0 0 0 0 0 0 0 0 0 0 0 0 0 0 0 0 127 0" result="hardAlpha"/>
<feOffset/>
<feGaussianBlur stdDeviation="13.4965"/>
<feComposite in2="hardAlpha" operator="out"/>
<feColorMatrix type="matrix" values="0 0 0 0 0.486275 0 0 0 0 0.227451 0 0 0 0 0.929412 0 0 0 0.7 0"/>
<feBlend mode="normal" in2="BackgroundImageFix" result="effect1_dropShadow_106_390"/>
<feBlend mode="normal" in="SourceGraphic" in2="effect1_dropShadow_106_390" result="shape"/>
</filter>
<linearGradient id="paint0_linear_106_390" x1="100.045" y1="112.114" x2="100.044" y2="244.781" gradientUnits="userSpaceOnUse">
<stop stop-color="white"/>
<stop offset="1" stop-color="white" stop-opacity="0"/>
</linearGradient>
</defs>
</svg>
