<svg width="230" height="180" viewBox="0 0 230 180" fill="none" xmlns="http://www.w3.org/2000/svg">
<g filter="url(#filter0_d_106_479)">
<path d="M129.247 60.7909C131.979 65.6248 134.4 70.6346 135.734 75.0714C143.246 75.0714 150.836 76.3143 157.377 77.8632C167.463 62.9719 176.24 44.897 175.686 34.0091C163.22 35.4277 143.551 48.0111 129.247 60.7909Z" fill="url(#paint0_linear_106_479)"/>
<path d="M178.449 79.357C177.598 81.66 176.143 83.8217 176.143 83.8217C176.143 83.8217 162.183 107.176 148.595 114.653C149.127 116.82 149.591 119.103 149.996 121.439C169.401 113.967 196.016 91.2902 202.721 78.7903C202.721 78.7903 191.84 78.8497 178.449 79.357Z" fill="url(#paint1_linear_106_479)"/>
<path d="M75.16 77.5406C65.166 62.712 56.5191 44.8184 57.0692 34.0091C68.9507 35.3612 87.3777 46.8569 101.465 58.9976C98.6305 63.987 95.9475 69.5156 94.1152 75.0714C88.1507 75.0714 81.4064 76.1454 75.16 77.5406Z" fill="url(#paint2_linear_106_479)"/>
<path d="M51.2641 79.3568C52.1148 81.66 53.5702 83.8215 53.5702 83.8215C53.5702 83.8215 67.5306 107.176 81.1186 114.653C80.5867 116.819 80.1228 119.103 79.7182 121.439C60.3127 113.966 33.6968 91.2897 26.9932 78.79C26.9932 78.79 37.873 78.8494 51.2641 79.3568Z" fill="url(#paint3_linear_106_479)"/>
<path d="M114.852 49.1414C114.852 49.1414 128.482 66.62 132.16 78.8567C148.737 78.8567 165.769 86.1346 165.769 86.1346C165.769 86.1346 154.158 105.559 142.857 111.778C146.321 125.889 146.321 145.991 146.321 145.991C146.321 145.991 126.881 141.137 114.852 132.124C106.212 139.104 83.3841 145.991 83.3841 145.991C83.3841 145.991 83.3841 123.179 86.8482 111.778C72.6663 100.137 63.9357 86.1346 63.9357 86.1346C63.9357 86.1346 83.3841 78.8567 97.5449 78.8567C102.484 63.8811 114.852 49.1414 114.852 49.1414Z" fill="url(#paint4_linear_106_479)"/>
</g>
<defs>
<filter id="filter0_d_106_479" x="7.43866e-05" y="7.016" width="229.713" height="165.968" filterUnits="userSpaceOnUse" color-interpolation-filters="sRGB">
<feFlood flood-opacity="0" result="BackgroundImageFix"/>
<feColorMatrix in="SourceAlpha" type="matrix" values="0 0 0 0 0 0 0 0 0 0 0 0 0 0 0 0 0 0 127 0" result="hardAlpha"/>
<feOffset/>
<feGaussianBlur stdDeviation="13.4965"/>
<feComposite in2="hardAlpha" operator="out"/>
<feColorMatrix type="matrix" values="0 0 0 0 0.486275 0 0 0 0 0.227451 0 0 0 0 0.929412 0 0 0 0.7 0"/>
<feBlend mode="normal" in2="BackgroundImageFix" result="effect1_dropShadow_106_479"/>
<feBlend mode="normal" in="SourceGraphic" in2="effect1_dropShadow_106_479" result="shape"/>
</filter>
<linearGradient id="paint0_linear_106_479" x1="114.857" y1="90" x2="114.857" y2="232.043" gradientUnits="userSpaceOnUse">
<stop stop-color="white"/>
<stop offset="1" stop-color="white" stop-opacity="0"/>
</linearGradient>
<linearGradient id="paint1_linear_106_479" x1="114.857" y1="90" x2="114.857" y2="232.043" gradientUnits="userSpaceOnUse">
<stop stop-color="white"/>
<stop offset="1" stop-color="white" stop-opacity="0"/>
</linearGradient>
<linearGradient id="paint2_linear_106_479" x1="114.857" y1="90" x2="114.857" y2="232.043" gradientUnits="userSpaceOnUse">
<stop stop-color="white"/>
<stop offset="1" stop-color="white" stop-opacity="0"/>
</linearGradient>
<linearGradient id="paint3_linear_106_479" x1="114.857" y1="90" x2="114.857" y2="232.043" gradientUnits="userSpaceOnUse">
<stop stop-color="white"/>
<stop offset="1" stop-color="white" stop-opacity="0"/>
</linearGradient>
<linearGradient id="paint4_linear_106_479" x1="114.857" y1="90" x2="114.857" y2="232.043" gradientUnits="userSpaceOnUse">
<stop stop-color="white"/>
<stop offset="1" stop-color="white" stop-opacity="0"/>
</linearGradient>
</defs>
</svg>
