<svg width="180" height="188" viewBox="0 0 180 188" fill="none" xmlns="http://www.w3.org/2000/svg">
<g filter="url(#filter0_d_106_453)">
<path d="M127.732 26.9931C133.798 35.8201 135.532 49.446 134.991 60.2509C144.8 71.6235 150.928 86.2587 150.928 101.314C150.928 104.364 150.696 107.359 150.249 110.283C146.772 116.625 138.871 122.498 132.344 126.23C123.641 131.207 113.998 132.129 106.344 126.036L106.262 125.972L106.174 125.915C103.444 124.164 101.821 120.817 101.403 117.168C100.98 113.462 101.871 110.107 103.354 108.474L103.505 108.308L103.616 108.113C104.997 105.701 107.724 104.81 110.663 105.825C113.601 106.841 116.741 109.847 118.013 115.279L118.627 117.902L120.996 116.62C125.227 114.33 127.003 110.21 127.113 106.112C127.221 102.068 125.735 97.8379 123.21 94.8007L120.046 97.4316C121.933 99.7017 123.081 102.957 122.999 106.002C122.944 108.065 122.339 109.931 121.101 111.359C119.188 106.455 115.766 103.234 112.008 101.935C107.6 100.412 102.719 101.614 100.157 105.877C97.6941 108.733 96.8261 113.364 97.3145 117.635C97.8149 122.016 99.8121 126.675 103.861 129.321C113.29 136.766 124.852 135.255 134.387 129.803C138.407 127.504 142.16 124.461 145.364 120.973C137.274 143.8 115.494 160.15 89.8936 160.15C64.2941 160.15 42.5128 143.801 34.4229 120.974C37.626 124.461 41.3788 127.504 45.3984 129.803C54.9333 135.255 66.4958 136.766 75.9248 129.321C79.974 126.675 81.9712 122.016 82.4717 117.635C82.96 113.364 82.0927 108.733 79.6289 105.877C77.0674 101.614 72.1869 100.412 67.7793 101.935C64.0214 103.234 60.5987 106.455 58.6855 111.359C57.4476 109.93 56.8427 108.065 56.7871 106.002C56.7062 102.957 57.8526 99.7017 59.7402 97.4316L56.5752 94.8007C54.0506 97.8379 52.565 102.068 52.6729 106.112C52.7827 110.21 54.5584 114.33 58.7891 116.62L61.1592 117.902L61.7734 115.279C63.0448 109.847 66.1844 106.841 69.123 105.825C72.0617 104.81 74.7887 105.701 76.1699 108.113L76.2812 108.308L76.4316 108.474C77.9154 110.107 78.8062 113.462 78.3828 117.168C77.9661 120.817 76.3428 124.164 73.6133 125.915L73.5244 125.972L73.4424 126.036C65.7879 132.129 56.1459 131.207 47.4424 126.23C40.9159 122.498 32.2286 116.625 28.752 110.283C28.3045 107.359 28.0723 104.364 28.0723 101.314C28.0723 86.0696 34.5273 71.2551 44.7363 59.8232C44.2619 49.0884 46.0321 35.704 52.0176 26.9931C53.2227 31.0915 59.918 38.7949 66.2764 43.6786C73.6644 40.2363 81.6778 38.2841 89.8936 38.2841C98.1296 38.2842 106.112 40.2457 113.439 43.704C119.808 38.8216 126.525 31.0986 127.732 26.9931ZM105.476 91.0693C101.683 78.3287 93.7534 69.616 86.9336 71.1855C81.0939 72.5301 77.8183 81.0128 78.3535 91.6581C80.7664 90.1905 83.4542 89.0786 86.3594 88.4101C93.1148 86.8554 99.8589 87.9733 105.476 91.0693ZM63.917 57.873C63.9136 61.0984 63.907 68.0289 68.4453 70.0458C75.0035 72.9604 81.9706 63.7545 82.0293 63.6767L63.917 57.6259V57.873ZM97.7559 63.6767C97.7888 63.7204 104.769 72.9658 111.34 70.0458C115.879 68.0289 115.872 61.0971 115.868 57.871V57.6259L97.7559 63.6767Z" fill="url(#paint0_linear_106_453)" shape-rendering="crispEdges"/>
</g>
<defs>
<filter id="filter0_d_106_453" x="1.07918" y="1.33514e-05" width="176.842" height="187.143" filterUnits="userSpaceOnUse" color-interpolation-filters="sRGB">
<feFlood flood-opacity="0" result="BackgroundImageFix"/>
<feColorMatrix in="SourceAlpha" type="matrix" values="0 0 0 0 0 0 0 0 0 0 0 0 0 0 0 0 0 0 127 0" result="hardAlpha"/>
<feOffset/>
<feGaussianBlur stdDeviation="13.4965"/>
<feComposite in2="hardAlpha" operator="out"/>
<feColorMatrix type="matrix" values="0 0 0 0 0.486275 0 0 0 0 0.227451 0 0 0 0 0.929412 0 0 0 1 0"/>
<feBlend mode="normal" in2="BackgroundImageFix" result="effect1_dropShadow_106_453"/>
<feBlend mode="normal" in="SourceGraphic" in2="effect1_dropShadow_106_453" result="shape"/>
</filter>
<linearGradient id="paint0_linear_106_453" x1="89.5001" y1="93.5717" x2="89.5" y2="262.475" gradientUnits="userSpaceOnUse">
<stop stop-color="white"/>
<stop offset="1" stop-color="white" stop-opacity="0"/>
</linearGradient>
</defs>
</svg>
