<svg width="210" height="210" viewBox="0 0 210 210" fill="none" xmlns="http://www.w3.org/2000/svg">
<g filter="url(#filter0_d_pi11)">
<!-- Outer ring -->
<path fill-rule="evenodd" clip-rule="evenodd"
  d="M105 22 L121 60 L162 47 L149 88 L188 105 L149 122 L162 163 L121 150 L105 188 L89 150 L48 163 L61 122 L22 105 L61 88 L48 47 L89 60 Z
     M105 48 L117 76 L147 67 L138 97 L166 105 L138 113 L147 143 L117 134 L105 162 L93 134 L63 143 L72 113 L44 105 L72 97 L63 67 L93 76 Z"
  fill="url(#paint0_linear_pi11)" shape-rendering="crispEdges"/>
<!-- Center dot -->
<path d="M97 105 L105 97 L113 105 L105 113 Z" fill="url(#paint0_linear_pi11)"/>
</g>
<defs>
<filter id="filter0_d_pi11" x="0" y="0" width="210" height="210" filterUnits="userSpaceOnUse" color-interpolation-filters="sRGB">
<feFlood flood-opacity="0" result="BackgroundImageFix"/>
<feColorMatrix in="SourceAlpha" type="matrix" values="0 0 0 0 0 0 0 0 0 0 0 0 0 0 0 0 0 0 127 0" result="hardAlpha"/>
<feOffset/>
<feGaussianBlur stdDeviation="13.4965"/>
<feComposite in2="hardAlpha" operator="out"/>
<feColorMatrix type="matrix" values="0 0 0 0 0.486275 0 0 0 0 0.227451 0 0 0 0 0.929412 0 0 0 0.7 0"/>
<feBlend mode="normal" in2="BackgroundImageFix" result="effect1_dropShadow_pi11"/>
<feBlend mode="normal" in="SourceGraphic" in2="effect1_dropShadow_pi11" result="shape"/>
</filter>
<linearGradient id="paint0_linear_pi11" x1="105" y1="22" x2="105" y2="260" gradientUnits="userSpaceOnUse">
<stop stop-color="white"/>
<stop offset="1" stop-color="white" stop-opacity="0"/>
</linearGradient>
</defs>
</svg>
