<?xml version="1.0" encoding="UTF-8"?>
<svg id="_레이어_2" data-name="레이어 2" xmlns="http://www.w3.org/2000/svg" xmlns:xlink="http://www.w3.org/1999/xlink" viewBox="0 0 1112.24 249.55">
  <defs>
    <style>
      .cls-1 {
        mask: url(#mask-1);
      }

      .cls-2 {
        fill: #fff;
      }

      .cls-3 {
        mask: url(#mask);
      }

      .cls-4 {
        fill: url(#_무제_그라디언트_123);
      }

      .cls-5 {
        fill: url(#_무제_그라디언트_471-2);
      }

      .cls-6 {
        fill: url(#_무제_그라디언트_471-3);
      }

      .cls-7 {
        fill: url(#_무제_그라디언트_471-5);
      }

      .cls-8 {
        fill: url(#_무제_그라디언트_471);
      }

      .cls-9 {
        fill: url(#_무제_그라디언트_471-4);
      }

      .cls-10 {
        fill: url(#_무제_그라디언트_471-6);
      }
    </style>
    <linearGradient id="_무제_그라디언트_471" data-name="무제 그라디언트 471" x1="398.54" y1="140.24" x2="1112.24" y2="140.24" gradientUnits="userSpaceOnUse">
      <stop offset="0" stop-color="#710087"/>
      <stop offset=".54" stop-color="#3a1b9b"/>
      <stop offset="1" stop-color="#2d1b69"/>
    </linearGradient>
    <linearGradient id="_무제_그라디언트_123" data-name="무제 그라디언트 123" x1="755.39" y1="67.32" x2="755.39" y2="200.22" gradientUnits="userSpaceOnUse">
      <stop offset=".19" stop-color="#fff"/>
      <stop offset=".26" stop-color="#f8f8f8"/>
      <stop offset=".35" stop-color="#e4e4e4"/>
      <stop offset=".46" stop-color="#c4c4c4"/>
      <stop offset=".58" stop-color="#989898"/>
      <stop offset=".71" stop-color="#5f5f5f"/>
      <stop offset=".85" stop-color="#1b1b1b"/>
      <stop offset=".9" stop-color="#000"/>
    </linearGradient>
    <mask id="mask" x="398.54" y="88.53" width="713.7" height="103.42" maskUnits="userSpaceOnUse">
      <path class="cls-4" d="M718,183.35v-94.11h13.61v88.4h73.74v13.61h-79.45c-4.36,0-7.9-3.54-7.9-7.9ZM854.08,191.25v-13.61h75.91c11.36,0,17.4-6.59,17.4-16.14,0-10.52-6.17-15.86-17.4-15.86h-47.71c-18.38,0-29.75-12.21-29.75-28.49s10.52-27.92,30.03-27.92h72.82v13.61h-72.82c-10.11,0-15.86,6.17-15.86,15.16s6.03,15.01,15.72,15.01h47.57c19.79,0,30.31,9.82,30.31,29.05,0,16.7-9.97,29.19-30.31,29.19h-75.91ZM1015.19,191.25v-102.01h96.91l-7.39,13.61h-75.91v74.79h76.05l7.39,13.61h-97.05ZM1027.21,145.64v-12.63h73.7v12.63h-73.7ZM413.69,151.82v40.13h-15.16v-52.76h58.01c17.82,0,32.27-5.05,32.27-18.66,0-14.59-13.19-19.08-32.41-19.08h-49.08l-8.79-12.91h63.2c25.82,0,42.24,12.07,42.24,32.13s-16.28,31.15-42.24,31.15h-48.04ZM645.18,88.54v56.95c0,18.61-6.35,28.7-23.75,31.87-.15.04-.33.07-.48.07-.59.11-1.18.22-1.77.3-3.58.52-7.53.74-11.89.74s-8.31-.22-11.89-.74c-.52-.07-1-.15-1.48-.22-.37-.07-.7-.11-1.03-.18-1.22-.22-2.36-.48-3.47-.78-.7-.18-1.37-.37-1.99-.63-.59-.15-1.18-.37-1.74-.63-2.95-1.11-5.43-2.55-7.5-4.36t-.04,0c-.52-.48-1-.92-1.48-1.4-.7-.74-1.37-1.48-1.96-2.33-.55-.85-1.11-1.74-1.62-2.66-.66-1.22-1.22-2.55-1.66-3.95-.22-.63-.41-1.26-.59-1.88-.07-.26-.11-.52-.18-.81-.15-.44-.22-.92-.33-1.4-.48-2.4-.78-5.02-.89-7.87-.04-1.03-.07-2.07-.07-3.14v-56.95h-15.03v55.1c0,26.18,9.97,40.99,31.8,46.16,1.7.41,3.47.74,5.32,1.03,4.69.74,9.82,1.11,15.44,1.11s10.89-.37,15.62-1.11c1.81-.3,3.55-.63,5.24-1.03.04,0,.11-.04.18-.04,1.37-.33,2.66-.7,3.91-1.11,18.98-6.02,27.7-20.57,27.7-45.02v-55.1h-14.37Z"/>
    </mask>
    <mask id="mask-1" x="-57.08" y="0" width="441.36" height="272.23" maskUnits="userSpaceOnUse">
      <path class="cls-2" d="M233.66,12.36l34.23,75.01,116.39,30.55-4.21,75.31-133.77,56.32-111.17,22.68L1.27,243.27s-59.9-102.17-58.32-106.91S57.24,69.47,57.24,69.47L233.66,12.36Z"/>
    </mask>
    <linearGradient id="_무제_그라디언트_471-2" data-name="무제 그라디언트 471" x1="177.48" y1="98.16" x2="223.32" y2="144" xlink:href="#_무제_그라디언트_471"/>
    <linearGradient id="_무제_그라디언트_471-3" data-name="무제 그라디언트 471" x1="224.3" y1="90.19" x2="250.18" y2="90.19" xlink:href="#_무제_그라디언트_471"/>
    <linearGradient id="_무제_그라디언트_471-4" data-name="무제 그라디언트 471" x1="135.08" y1="129.75" x2="154.42" y2="129.75" xlink:href="#_무제_그라디언트_471"/>
    <linearGradient id="_무제_그라디언트_471-5" data-name="무제 그라디언트 471" x1="0" y1="124.78" x2="344.65" y2="124.78" xlink:href="#_무제_그라디언트_471"/>
    <linearGradient id="_무제_그라디언트_471-6" data-name="무제 그라디언트 471" x1="251.53" y1="30.93" x2="313.39" y2="30.93" xlink:href="#_무제_그라디언트_471"/>
  </defs>
  <g id="OBJECTS">
    <g>
      <g>
        <path class="cls-8" d="M718,183.35v-94.11h13.61v88.4h73.74v13.61h-79.45c-4.36,0-7.9-3.54-7.9-7.9ZM854.08,191.25v-13.61h75.91c11.36,0,17.4-6.59,17.4-16.14,0-10.52-6.17-15.86-17.4-15.86h-47.71c-18.38,0-29.75-12.21-29.75-28.49s10.52-27.92,30.03-27.92h72.82v13.61h-72.82c-10.11,0-15.86,6.17-15.86,15.16s6.03,15.01,15.72,15.01h47.57c19.79,0,30.31,9.82,30.31,29.05,0,16.7-9.97,29.19-30.31,29.19h-75.91ZM1015.19,191.25v-102.01h96.91l-7.39,13.61h-75.91v74.79h76.05l7.39,13.61h-97.05ZM1027.21,145.64v-12.63h73.7v12.63h-73.7ZM413.69,151.82v40.13h-15.16v-52.76h58.01c17.82,0,32.27-5.05,32.27-18.66,0-14.59-13.19-19.08-32.41-19.08h-49.08l-8.79-12.91h63.2c25.82,0,42.24,12.07,42.24,32.13s-16.28,31.15-42.24,31.15h-48.04ZM645.18,88.54v56.95c0,18.61-6.35,28.7-23.75,31.87-.15.04-.33.07-.48.07-.59.11-1.18.22-1.77.3-3.58.52-7.53.74-11.89.74s-8.31-.22-11.89-.74c-.52-.07-1-.15-1.48-.22-.37-.07-.7-.11-1.03-.18-1.22-.22-2.36-.48-3.47-.78-.7-.18-1.37-.37-1.99-.63-.59-.15-1.18-.37-1.74-.63-2.95-1.11-5.43-2.55-7.5-4.36t-.04,0c-.52-.48-1-.92-1.48-1.4-.7-.74-1.37-1.48-1.96-2.33-.55-.85-1.11-1.74-1.62-2.66-.66-1.22-1.22-2.55-1.66-3.95-.22-.63-.41-1.26-.59-1.88-.07-.26-.11-.52-.18-.81-.15-.44-.22-.92-.33-1.4-.48-2.4-.78-5.02-.89-7.87-.04-1.03-.07-2.07-.07-3.14v-56.95h-15.03v55.1c0,26.18,9.97,40.99,31.8,46.16,1.7.41,3.47.74,5.32,1.03,4.69.74,9.82,1.11,15.44,1.11s10.89-.37,15.62-1.11c1.81-.3,3.55-.63,5.24-1.03.04,0,.11-.04.18-.04,1.37-.33,2.66-.7,3.91-1.11,18.98-6.02,27.7-20.57,27.7-45.02v-55.1h-14.37Z"/>
        <g class="cls-3">
          <path class="cls-8" d="M718,183.35v-94.11h13.61v88.4h73.74v13.61h-79.45c-4.36,0-7.9-3.54-7.9-7.9ZM854.08,191.25v-13.61h75.91c11.36,0,17.4-6.59,17.4-16.14,0-10.52-6.17-15.86-17.4-15.86h-47.71c-18.38,0-29.75-12.21-29.75-28.49s10.52-27.92,30.03-27.92h72.82v13.61h-72.82c-10.11,0-15.86,6.17-15.86,15.16s6.03,15.01,15.72,15.01h47.57c19.79,0,30.31,9.82,30.31,29.05,0,16.7-9.97,29.19-30.31,29.19h-75.91ZM1015.19,191.25v-102.01h96.91l-7.39,13.61h-75.91v74.79h76.05l7.39,13.61h-97.05ZM1027.21,145.64v-12.63h73.7v12.63h-73.7ZM413.69,151.82v40.13h-15.16v-52.76h58.01c17.82,0,32.27-5.05,32.27-18.66,0-14.59-13.19-19.08-32.41-19.08h-49.08l-8.79-12.91h63.2c25.82,0,42.24,12.07,42.24,32.13s-16.28,31.15-42.24,31.15h-48.04ZM645.18,88.54v56.95c0,18.61-6.35,28.7-23.75,31.87-.15.04-.33.07-.48.07-.59.11-1.18.22-1.77.3-3.58.52-7.53.74-11.89.74s-8.31-.22-11.89-.74c-.52-.07-1-.15-1.48-.22-.37-.07-.7-.11-1.03-.18-1.22-.22-2.36-.48-3.47-.78-.7-.18-1.37-.37-1.99-.63-.59-.15-1.18-.37-1.74-.63-2.95-1.11-5.43-2.55-7.5-4.36t-.04,0c-.52-.48-1-.92-1.48-1.4-.7-.74-1.37-1.48-1.96-2.33-.55-.85-1.11-1.74-1.62-2.66-.66-1.22-1.22-2.55-1.66-3.95-.22-.63-.41-1.26-.59-1.88-.07-.26-.11-.52-.18-.81-.15-.44-.22-.92-.33-1.4-.48-2.4-.78-5.02-.89-7.87-.04-1.03-.07-2.07-.07-3.14v-56.95h-15.03v55.1c0,26.18,9.97,40.99,31.8,46.16,1.7.41,3.47.74,5.32,1.03,4.69.74,9.82,1.11,15.44,1.11s10.89-.37,15.62-1.11c1.81-.3,3.55-.63,5.24-1.03.04,0,.11-.04.18-.04,1.37-.33,2.66-.7,3.91-1.11,18.98-6.02,27.7-20.57,27.7-45.02v-55.1h-14.37Z"/>
        </g>
      </g>
      <g>
        <g class="cls-1">
          <g>
            <g>
              <path class="cls-5" d="M224.34,33.97l25.83,112.42M135.13,73.22l19.39,113.04"/>
              <g>
                <path class="cls-6" d="M224.34,33.97c7.66,33.17,19.24,79.52,25.83,112.42,0,0-.14.03-.14.03-4.83-18.61-9.1-37.36-13.23-56.14.25-.03-13.37-56.74-12.46-56.32h0Z"/>
                <path class="cls-9" d="M135.13,73.22c5.76,33.36,14.58,80.01,19.29,113.04,0,0-.05.03-.05.03-3.76-18.75-6.96-37.59-10.02-56.47.25-.02-10.11-57.04-9.22-56.57v-.03Z"/>
              </g>
            </g>
            <path class="cls-7" d="M344.65,140.18l-.32.34c-.95,1.02-2.28,1.6-3.67,1.64-97.47,2.3-81.68,30.5-99.46,30.5-3.33-.35-5.34-4.16-6.85-8.3-6.01-16.63-11.09-60.45-16.44-78.42l-26.66,62.22-15.64,38.82c-7.99,19.8-16.88,38.41-23.34,58.78-.62,1.96-3.09,3.54-4.34,3.77-1.5.25-3.38-1.85-3.68-3.95l-8.42-58.54-11.49-68.21c-4.75,2.35-15.44,34.29-24.41,34.47-23.3.43-68.59-.71-99.1-3.82-1.17-.12-1.09-1.81.1-1.87,12.14-.64,80.61-5.67,91.63-6.35,1.3-.08,2.43-.84,3-2.02l31.06-67.92c.95-1.98,3.77-3.56,5.21-2.86,1.17.58,2.9,2.53,3.29,4.75l19.39,113.04,28.59-71.75,33.3-80.97c1.52-3.68,6.83-3.4,7.92.43l25.83,112.42c4.2-7.61,75.6-6.21,94.47-6.21ZM282.46,61.86c3.13-25.26,5.67-27.8,30.93-30.93-25.26-3.13-27.8-5.67-30.93-30.93-3.13,25.26-5.67,27.8-30.93,30.93,25.26,3.13,27.8,5.67,30.93,30.93Z"/>
          </g>
        </g>
        <path class="cls-10" d="M282.46,61.86c3.13-25.26,5.67-27.8,30.93-30.93-25.26-3.13-27.8-5.67-30.93-30.93-3.13,25.26-5.67,27.8-30.93,30.93,25.26,3.13,27.8,5.67,30.93,30.93Z"/>
      </g>
    </g>
  </g>
</svg>